<?xml version="1.0" encoding="utf-8"?>
<!-- Generator: Adobe Illustrator 25.3.0, SVG Export Plug-In . SVG Version: 6.00 Build 0)  -->
<svg version="1.1" id="Layer_1" xmlns="http://www.w3.org/2000/svg" xmlns:xlink="http://www.w3.org/1999/xlink" x="0px" y="0px"
	 viewBox="18 0 209 84.2" style="enable-background:new 18 0 209 84.2;" xml:space="preserve" preserveAspectRatio="xMinYMid meet">
<style type="text/css">
	.st0{fill:#353535;}
</style>
<path class="st0" d="M51.5,61.2c0,3.7-1.1,6.6-3.2,8.8c-2.1,2.2-5,3.2-8.7,3.2c-2.5,0-4.8-0.5-6.9-1.6c-2.1-1.1-3.5-2-4.2-2.7
	c-0.6-0.7-1.1-1.3-1.4-1.7l-7.8,7.4l0.9,1c0.5,0.6,1.3,1.4,2.5,2.4c1.2,0.9,2.6,1.9,4.1,2.8c1.6,0.9,3.5,1.7,5.9,2.4
	c2.3,0.7,4.8,1,7.4,1c6.8,0,12.5-2.2,17.1-6.6c4.5-4.4,6.8-9.9,6.8-16.4V19.8H51.5v5.5l-1.4-1.7c-0.9-1-2.5-2.1-4.7-3.1
	c-2.2-1.1-4.7-1.6-7.2-1.6c-5.2,0-9.8,2.2-14,6.7S18,35.3,18,41.5c0,6.1,2.1,11.3,6.2,15.8c4.2,4.5,8.9,6.7,14,6.7
	c1.6,0,3.2-0.3,4.8-0.7c1.5-0.4,2.8-1,3.7-1.6c0.9-0.6,1.8-1.3,2.7-2c0.8-0.7,1.3-1.3,1.6-1.5c0.3-0.3,0.4-0.5,0.6-0.7L51.5,61.2
	L51.5,61.2z M30.8,41.4c0-3.2,0.9-5.8,2.9-7.9s4.4-3.1,7.2-3.1c2.8,0,5.3,1,7.4,3.2s3.2,4.8,3.2,7.8c0,3.1-1.1,5.7-3.2,7.9
	c-2.1,2.2-4.6,3.2-7.4,3.2s-5.2-1.1-7.2-3.1C31.8,47.2,30.8,44.6,30.8,41.4z M106.3,64.8h12.4V19.7h-12.4v23.9c0,3.4-0.9,6-2.5,7.8
	c-1.7,1.8-3.9,2.7-6.7,2.7c-2.5,0-4.6-0.8-6.3-2.5c-1.7-1.6-2.5-3.7-2.5-6.2V19.7H75.9v27c0,5.8,1.6,10.4,4.9,13.8
	c3.2,3.5,7.5,5.2,12.6,5.2c2.4,0,4.8-0.5,7-1.5c2.2-1,3.7-1.8,4.4-2.4c0.6-0.6,1.2-1.1,1.5-1.6V64.8z M144,19.7h-12.4v45.1H144
	V19.7z M144.9,6.9c0-2.1-0.7-3.8-2-5c-1.3-1.3-3.1-1.9-5.4-1.9c-2.1,0-3.7,0.6-5,1.9s-1.9,3-1.9,5s0.6,3.7,1.8,5
	c1.3,1.3,2.9,1.9,5,1.9c2.2,0,4-0.6,5.4-1.9C144.2,10.6,144.9,9,144.9,6.9z M182.6,18.8c-1.7,0-3.3,0.3-4.8,0.7s-2.8,1-3.7,1.6
	c-1,0.6-1.9,1.3-2.7,2s-1.3,1.2-1.6,1.5s-0.4,0.5-0.5,0.7V0.4h-12.4v64.4h12.4v-5.5l1.3,1.7c0.9,1.1,2.5,2.1,4.8,3.2
	c2.2,1.1,4.6,1.6,7.2,1.6c5.8,0,10.8-2.2,15.1-6.8s6.5-10.1,6.5-16.7s-2.2-12.1-6.4-16.6C193.5,21.1,188.5,18.8,182.6,18.8z
	 M180.3,54.7c-3.1,0-5.7-1.2-7.8-3.5c-2.2-2.3-3.2-5.3-3.2-8.9c0-3.6,1-6.6,3.2-8.9c2.2-2.3,4.8-3.5,7.8-3.5c3.1,0,5.7,1.2,7.8,3.5
	c2.2,2.3,3.2,5.3,3.2,8.9c0,3.6-1.1,6.6-3.2,8.9C186,53.6,183.4,54.7,180.3,54.7z M226.4,0.4H214v64.4h12.4V0.4z"/>
</svg>
